<?xml version="1.0" standalone="no"?>
<!DOCTYPE svg PUBLIC "-//W3C//DTD SVG 20010904//EN"
 "http://www.w3.org/TR/2001/REC-SVG-20010904/DTD/svg10.dtd">
<svg version="1.0" xmlns="http://www.w3.org/2000/svg"
 width="500.000000pt" height="500.000000pt" viewBox="0 0 500.000000 500.000000"
 preserveAspectRatio="xMidYMid meet">
<metadata>
Created by potrace 1.14, written by Peter Selinger 2001-2017
</metadata>
<g transform="translate(0.000000,500.000000) scale(0.100000,-0.100000)"
fill="#000000" stroke="none">
<path d="M688 4665 c-25 -128 -31 -136 -113 -162 -38 -12 -86 -25 -105 -30
-33 -8 -31 -9 54 -30 124 -31 131 -37 151 -130 29 -139 29 -138 55 -33 30 120
49 141 147 164 40 9 80 16 90 17 10 0 -23 11 -73 24 -51 13 -101 28 -112 34
-14 8 -27 39 -47 121 -15 60 -28 110 -29 110 -1 0 -9 -38 -18 -85z"/>
<path d="M3541 4210 c-157 -148 -288 -276 -293 -284 -4 -7 -9 -35 -10 -61 -1
-45 1 -49 69 -118 38 -40 195 -205 347 -367 327 -347 350 -370 371 -370 12 0
507 460 583 542 16 17 24 41 27 74 l4 49 -93 93 c-88 88 -95 93 -117 81 -13
-6 -97 -82 -187 -167 l-163 -155 -49 48 c-44 43 -48 51 -36 64 13 12 18 12 31
1 13 -11 27 -2 98 66 109 104 105 98 105 157 1 51 0 51 -83 136 -76 78 -85 84
-107 74 -12 -6 -76 -61 -141 -123 -65 -62 -119 -111 -120 -109 -1 3 -20 23
-41 46 -33 36 -37 44 -26 58 11 14 15 14 29 1 14 -13 31 0 158 122 l142 137
-1 49 c0 44 -4 53 -55 110 -83 92 -111 116 -136 116 -15 0 -111 -85 -306 -270z"/>
<path d="M2936 3638 c-108 -103 -108 -103 -112 -155 l-3 -52 133 -138 c96 -99
145 -142 172 -152 40 -14 88 -52 105 -83 9 -16 5 -16 -41 2 -27 11 -73 29
-100 40 -81 32 -104 28 -165 -32 -49 -49 -54 -58 -59 -109 -5 -50 -3 -61 20
-95 24 -35 58 -114 50 -114 -2 0 -97 99 -210 219 -114 121 -214 222 -223 225
-22 9 -44 -7 -157 -115 -95 -91 -98 -96 -101 -142 -4 -57 -25 -32 279 -351
114 -121 231 -238 258 -260 54 -45 55 -42 -13 -88 -22 -15 -23 -17 -7 -33 15
-17 18 -16 45 3 15 11 36 29 47 40 l18 21 109 -54 c60 -30 120 -55 135 -55 18
0 50 23 112 82 115 108 112 104 112 166 0 48 -8 70 -71 188 -38 74 -67 139
-63 145 5 8 12 5 23 -8 15 -19 245 -161 284 -176 27 -10 62 13 160 105 l87 84
0 55 c0 47 -10 80 -64 203 -35 81 -80 166 -99 190 -39 47 -453 487 -493 524
-14 12 -33 22 -42 22 -10 0 -66 -46 -126 -102z"/>
<path d="M2570 3190 c17 -22 41 -42 53 -44 12 -3 55 -9 95 -15 40 -6 94 -19
120 -29 l47 -17 33 31 33 31 -36 17 c-66 32 -224 66 -302 66 l-75 0 32 -40z"/>
<path d="M2345 3175 c-184 -76 -350 -257 -405 -443 -36 -124 -43 -209 -25
-312 34 -198 87 -286 140 -234 18 19 18 22 -19 109 -35 86 -50 205 -36 306 13
91 13 92 51 176 33 72 91 155 140 199 39 34 224 224 218 224 -2 0 -31 -12 -64
-25z"/>
<path d="M1280 2595 c-22 -24 -23 -29 -17 -142 13 -271 99 -499 276 -735 33
-46 37 -48 84 -48 50 0 93 -17 140 -56 54 -46 184 -193 201 -228 20 -43 67
-69 205 -115 153 -50 247 -65 426 -65 179 0 278 15 428 65 116 39 281 125 373
194 101 77 250 236 317 336 57 86 137 244 137 271 0 8 5 19 10 24 13 13 58
210 69 299 4 39 4 81 -1 96 -28 80 -158 52 -158 -34 0 -58 -28 -199 -56 -282
-133 -398 -443 -680 -859 -781 -94 -23 -131 -27 -260 -27 -101 0 -168 5 -203
15 l-54 15 270 256 c268 255 270 258 274 302 2 25 1 51 -2 59 -3 7 -90 104
-195 215 -141 150 -196 201 -213 201 -16 0 -53 -27 -110 -82 -48 -45 -93 -87
-101 -94 -21 -19 -31 -104 -16 -134 8 -14 41 -52 74 -85 55 -54 63 -58 81 -47
17 10 21 10 27 -3 4 -11 -18 -38 -73 -88 -42 -40 -78 -72 -79 -72 -1 0 -131
136 -289 303 -196 206 -294 302 -308 302 -12 0 -56 -34 -107 -83 -47 -45 -97
-91 -110 -102 l-24 -20 6 30 c3 17 -1 64 -9 105 -8 41 -14 101 -14 133 0 86
-27 126 -86 127 -20 0 -39 -9 -54 -25z m560 -916 c120 -128 124 -136 25 -58
-102 80 -236 232 -274 309 -12 24 15 -3 249 -251z"/>
<path d="M1105 1872 c-63 -30 -109 -69 -367 -314 -153 -146 -156 -150 -161
-196 -2 -29 1 -55 9 -69 8 -12 181 -198 385 -413 239 -252 377 -390 390 -390
23 0 512 459 561 528 51 69 63 107 63 197 0 101 -17 133 -147 267 -133 138
-199 163 -303 115 l-50 -24 4 44 c4 57 -27 110 -118 196 -101 95 -161 108
-266 59z m83 -402 c27 -16 37 -18 48 -9 11 9 14 6 14 -16 0 -20 -14 -40 -56
-79 -31 -28 -59 -51 -63 -51 -3 0 -30 26 -60 57 -45 49 -52 60 -41 73 11 14
14 13 25 -2 12 -16 16 -14 49 15 20 18 40 32 44 32 4 0 22 -9 40 -20z m360
-269 c27 -28 30 -28 46 -13 15 15 16 14 16 -11 0 -22 -18 -45 -81 -105 -45
-42 -84 -78 -88 -80 -3 -1 -35 27 -71 63 -58 59 -63 66 -49 80 14 15 17 15 29
0 11 -14 20 -9 71 40 31 30 67 55 77 55 11 0 34 -13 50 -29z"/>
<path d="M65 595 c-5 -2 -22 -6 -37 -9 -22 -5 -27 -11 -26 -31 3 -30 2 -30 24
-7 15 14 37 17 138 17 129 0 199 -17 265 -65 17 -11 46 -26 66 -33 54 -19 39
-32 -31 -29 -74 5 -144 -12 -144 -34 0 -10 6 -14 14 -11 8 3 20 -1 27 -9 10
-12 13 -12 25 3 7 10 14 13 14 7 0 -19 -22 -33 -39 -25 -10 6 -21 4 -29 -5
-11 -12 -11 -15 0 -18 186 -54 356 -166 346 -227 -4 -23 -5 -22 -27 14 -36 59
-163 136 -280 171 -74 22 -94 21 -86 -3 4 -13 0 -20 -15 -24 -12 -3 -20 -13
-20 -25 0 -34 17 -34 49 0 28 30 32 31 55 19 14 -8 22 -19 19 -24 -4 -6 0 -8
11 -4 19 8 32 -14 22 -39 -6 -15 -8 -15 -26 1 -22 20 -77 22 -110 5 -28 -15
-71 -74 -74 -102 -1 -13 -6 -30 -10 -37 -4 -7 -2 -25 4 -42 l12 -29 254 0 254
0 0 59 c0 245 -169 464 -405 526 -51 13 -211 20 -240 10z"/>
<path d="M63 538 c-38 -13 -41 -23 -12 -39 13 -7 19 -17 16 -29 -4 -17 -2 -17
29 -4 18 8 49 14 67 14 27 0 36 5 46 26 6 14 9 30 6 35 -8 12 -111 10 -152 -3z"/>
<path d="M355 489 c4 -13 8 -25 9 -25 0 -1 19 1 41 5 l40 7 -30 11 c-16 6 -38
14 -49 18 -16 7 -17 5 -11 -16z"/>
<path d="M280 378 c0 -9 7 -19 16 -22 15 -6 15 -4 3 11 -7 10 -15 20 -16 22
-2 2 -3 -3 -3 -11z"/>
</g>
</svg>
